<?xml version="1.0" encoding="UTF-8" standalone="no"?>
<svg xmlns:dc="http://purl.org/dc/elements/1.1/" xmlns:cc="http://creativecommons.org/ns#" xmlns:rdf="http://www.w3.org/1999/02/22-rdf-syntax-ns#" xmlns:svg="http://www.w3.org/2000/svg" xmlns="http://www.w3.org/2000/svg" xmlns:sodipodi="http://sodipodi.sourceforge.net/DTD/sodipodi-0.dtd" xmlns:inkscape="http://www.inkscape.org/namespaces/inkscape" width="500" height="500" viewBox="0 0 132.29166 132.29167" version="1.1" id="svg8" inkscape:version="1.0.1 (3bc2e813f5, 2020-09-07)" sodipodi:docname="logo.svg">
  <defs id="defs2"/>
  <sodipodi:namedview id="base" pagecolor="#ffffff" bordercolor="#666666" borderopacity="1.0" inkscape:pageopacity="0.0" inkscape:pageshadow="2" inkscape:zoom="2.8" inkscape:cx="212.27957" inkscape:cy="241.80476" inkscape:document-units="mm" inkscape:current-layer="layer2" inkscape:document-rotation="0" showgrid="false" units="px" showguides="false" inkscape:window-width="1920" inkscape:window-height="1057" inkscape:window-x="-8" inkscape:window-y="1072" inkscape:window-maximized="1"/>
  <metadata id="metadata5">
    <rdf:RDF>
      <cc:Work rdf:about="">
        <dc:format>image/svg+xml</dc:format>
        <dc:type rdf:resource="http://purl.org/dc/dcmitype/StillImage"/>
        <dc:title/>
      </cc:Work>
    </rdf:RDF>
  </metadata>
  <g inkscape:groupmode="layer" id="layer2" inkscape:label="Calque 2" style="display:inline">
    <path id="rect24" style="fill:#009c9a;fill-rule:evenodd;stroke-width:0.978425;fill-opacity:1" d="M 80 40 L 80 286.18945 L 80 287 L 80.003906 287 A 169.90574 170.09422 45.004227 0 0 250 456 A 169.90574 170.09422 45.004227 0 0 419.99609 287 L 420 287 L 420 285.8125 A 169.90574 170.09422 45.004227 0 0 420 285.19922 L 420 40 L 80 40 z " transform="scale(0.26458333)"/>
  </g>
  <g inkscape:groupmode="layer" id="layer3" inkscape:label="Calque 3">
    <path id="path83" style="fill:#ffffff;stroke:none;stroke-width:0.999999px;stroke-linecap:butt;stroke-linejoin:miter;stroke-opacity:1;fill-opacity:1" d="M 238.75 95.357422 L 224.64258 116.96484 L 199.10742 116.96484 L 184.10742 95.714844 L 157.14258 95.714844 L 157.14258 150.89258 L 190 201.96484 L 186.07227 225.71484 L 220.53516 225.71484 L 225.53516 193.21484 L 196.25 148.92773 L 249.10742 148.92773 L 249.46484 148.92773 L 302.32227 148.92773 L 273.03516 193.21484 L 278.03516 225.71484 L 312.5 225.71484 L 308.57227 201.96484 L 341.42773 150.89258 L 341.42773 95.714844 L 314.46484 95.714844 L 299.46484 116.96484 L 273.92773 116.96484 L 259.82227 95.357422 L 249.28516 95.357422 L 238.75 95.357422 z " transform="scale(0.26458333)"/>
    <path id="path951" style="fill:#ffffff;stroke:none;stroke-width:0.999999px;stroke-linecap:butt;stroke-linejoin:miter;stroke-opacity:1;fill-opacity:1" d="M 182.5 259.82227 L 161.96484 387.85742 L 195.17773 387.85742 L 207.85742 305.53516 L 243.57227 360.35742 L 249.28516 360.35742 L 255 360.35742 L 290.71484 305.53516 L 303.39258 387.85742 L 336.60742 387.85742 L 316.07227 259.82227 L 282.85742 259.82227 L 249.28516 309.46484 L 215.71484 259.82227 L 182.5 259.82227 z " transform="scale(0.26458333)"/>
  </g>
</svg>