<svg viewBox="0 0 1440 150" version="1.1" xmlns="http://www.w3.org/2000/svg"><path fill="#d9d9d9" d="M0,60L60,62.5C120,65,240,70,360,77.5C480,85,600,95,720,95C840,95,960,85,1080,72.5C1200,60,1320,45,1440,52.5C1560,60,1680,90,1800,92.5C1920,95,2040,70,2160,72.5C2280,75,2400,105,2520,105C2640,105,2760,75,2880,55C3000,35,3120,25,3240,32.5C3360,40,3480,65,3600,82.5C3720,100,3840,110,3960,112.5C4080,115,4200,110,4320,102.5C4440,95,4560,85,4680,70C4800,55,4920,35,5040,40C5160,45,5280,75,5400,72.5C5520,70,5640,35,5760,37.5C5880,40,6000,80,6120,82.5C6240,85,6360,50,6480,30C6600,10,6720,5,6840,20C6960,35,7080,70,7200,72.5C7320,75,7440,45,7560,47.5C7680,50,7800,85,7920,102.5C8040,120,8160,120,8280,122.5C8400,125,8520,130,8580,132.5L8640,135L8640,150L8580,150C8520,150,8400,150,8280,150C8160,150,8040,150,7920,150C7800,150,7680,150,7560,150C7440,150,7320,150,7200,150C7080,150,6960,150,6840,150C6720,150,6600,150,6480,150C6360,150,6240,150,6120,150C6000,150,5880,150,5760,150C5640,150,5520,150,5400,150C5280,150,5160,150,5040,150C4920,150,4800,150,4680,150C4560,150,4440,150,4320,150C4200,150,4080,150,3960,150C3840,150,3720,150,3600,150C3480,150,3360,150,3240,150C3120,150,3000,150,2880,150C2760,150,2640,150,2520,150C2400,150,2280,150,2160,150C2040,150,1920,150,1800,150C1680,150,1560,150,1440,150C1320,150,1200,150,1080,150C960,150,840,150,720,150C600,150,480,150,360,150C240,150,120,150,60,150L0,150Z"></path></svg>